<svg id="Capa_1" enable-background="new 0 0 488.473 488.473" height="512" viewBox="0 0 488.473 488.473" width="512" xmlns="http://www.w3.org/2000/svg"><path d="m488.473 95.286c0-52.547-42.738-95.285-95.285-95.285-25.461 0-49.387 9.913-67.379 27.906l-67.581 67.581c-11.516-6.043-25.891-4.638-35.575 5.046s-11.089 24.06-5.046 35.575l-155.756 155.755c-18.306 18.306-31.737 41.128-38.833 65.993l-21.838 76.428c-3.056 10.658-.075 22.137 7.767 29.978l15.265 15.265c5.799 5.814 13.595 8.944 21.585 8.944 2.803 0 5.62-.388 8.393-1.178l76.413-21.839c24.88-7.096 47.702-20.527 66.008-38.832l155.755-155.755c4.424 2.322 9.116 3.898 13.99 3.898 7.811 0 15.622-2.981 21.585-8.944 9.684-9.684 11.089-24.06 5.046-35.575l67.581-67.581c17.992-17.993 27.905-41.919 27.905-67.38zm-335.033 288.166c-10.986 10.986-24.671 19.036-39.608 23.3l-44.959 12.85 12.85-44.974c4.263-14.922 12.313-28.606 23.3-39.593l154.481-154.481 48.418 48.418c-.001 0-154.482 154.48-154.482 154.48z"/></svg>